<svg width="1845" height="74" viewBox="0 0 1845 74" fill="none" xmlns="http://www.w3.org/2000/svg">
<path d="M0 33.3626H23.6537V47.2028H79.1377V60.7486H92.5707V47.2028H106.004V33.3626H120.897V60.7486H133.454V74H148.347V60.7486H162.948V47.2028H175.797V60.7486H190.398V47.2028H217.848V60.7486H232.449V33.3626H248.218V59.2763H262.527V46.3194L286.765 47.2028V33.3626H300.198V47.2028H328.232V33.3626H439.492V18.6389H452.049V33.3626H466.942V47.2028H480.667H494.354V33.3626H509.205V18.6389H521.727V33.3626H632.679V47.2028H660.635V33.3626H674.031V47.2028L698.201 46.3194V59.2763H712.471V33.3626H728.196V60.7486H742.757V47.2028H770.13V60.7486H784.691V47.2028H797.504V60.7486H812.065V74H826.917V60.7486H839.439V33.3626H854.29V47.2028H867.686V60.7486H881.082V47.2028H936.412V33.3626H960V0H0V33.3626Z" fill="#1C1A1A"/>
<path d="M885 33.3626H908.654V47.2028H964.138V60.7486H977.571V47.2028H991.004V33.3626H1005.9V60.7486H1018.45V74H1033.35V60.7486H1047.95V47.2028H1060.8V60.7486H1075.4V47.2028H1102.85V60.7486H1117.45V33.3626H1133.22V59.2763H1147.53V46.3194L1171.76 47.2028V33.3626H1185.2V47.2028H1213.23V33.3626H1324.49V18.6389H1337.05V33.3626H1351.94V47.2028H1365.67H1379.35V33.3626H1394.21V18.6389H1406.73V33.3626H1517.68V47.2028H1545.64V33.3626H1559.03V47.2028L1583.2 46.3194V59.2763H1597.47V33.3626H1613.2V60.7486H1627.76V47.2028H1655.13V60.7486H1669.69V47.2028H1682.5V60.7486H1697.06V74H1711.92V60.7486H1724.44V33.3626H1739.29V47.2028H1752.69V60.7486H1766.08V47.2028H1821.41V33.3626H1845V0H885V33.3626Z" fill="#1C1A1A"/>
</svg>
