<svg width="1845" height="82" viewBox="0 0 1845 82" fill="none" xmlns="http://www.w3.org/2000/svg">
<path d="M912.758 46.3842H960V82H0V30.5867H27.4119V46.3842H57.1567V63.1901H82.2357V46.3842H304.447V30.5867H360.438V46.3842H387.266V30.5867L435.674 31.5951V16.8059H464.253V46.3842H495.747V15.1253H524.909V30.5867H579.733V15.1253H608.894V30.5867H634.557V15.1253H663.718V0H693.463V15.1253H718.542V46.3842H748.287V30.5867H775.115V15.1253H801.944V30.5867H912.758V46.3842Z" fill="#1C1A1A"/>
<path d="M932.242 46.3842H885V82H1845V30.5867H1817.59V46.3842H1787.84V63.1901H1762.76V46.3842H1540.55V30.5867H1484.56V46.3842H1457.73V30.5867L1409.33 31.5951V16.8059H1380.75V46.3842H1349.25V15.1253H1320.09V30.5867H1265.27V15.1253H1236.11V30.5867H1210.44V15.1253H1181.28V0H1151.54V15.1253H1126.46V46.3842H1096.71V30.5867H1069.88V15.1253H1043.06V30.5867H932.242V46.3842Z" fill="#1C1A1A"/>
</svg>
